<svg id="Layer_1" data-name="Layer 1" xmlns="http://www.w3.org/2000/svg" width="256" height="256" viewBox="0 0 256 256"><defs><style>.cls-1{fill:#1a1a1a;}.cls-2{fill:#ec2854;}.cls-3{fill:#fff;}</style></defs><rect id="box" class="cls-1" width="256" height="256" rx="8.59"/><path id="wings" class="cls-2" d="M58.9,18.12c-4,1.67-12.69,8.2-8.73,14.08a14.63,14.63,0,0,0,7.58,5.31c2.58.81,5.75-.18,8.12.9-.51,1.23-2.29,5.7-3.81,5.37a8.49,8.49,0,0,0-8,2c-4.57-6.33-11.07-8.9-18.24-7.14,5.31-6.55,4-13.41-1.56-19.65-3.37-3.77-11.55-9.14-16.81-7,13.14-5.48,29.16-1.34,41.41,6-2.12.89-.87-.52,0,0Zm33.27,0c4,1.67,12.69,8.2,8.73,14.08a14.63,14.63,0,0,1-7.58,5.31c-2.59.81-5.76-.18-8.12.9.51,1.23,2.28,5.7,3.81,5.37a8.49,8.49,0,0,1,8,2c4.57-6.33,11.07-8.9,18.24-7.14-5.31-6.55-4-13.41,1.55-19.65,3.37-3.77,11.56-9.14,16.82-7-13.14-5.47-29.16-1.34-41.41,6C94.29,19,93,17.6,92.17,18.12Z" transform="translate(0 0)"/><g id="logo"><path class="cls-3" d="M35.26,69.39a38.34,38.34,0,0,1-6.88-.59A27.61,27.61,0,0,1,22.44,67l.79-6.14a39.9,39.9,0,0,0,6.46,2.17,25.76,25.76,0,0,0,6.06.75c2.84,0,4.94-.5,6.32-1.49a5.2,5.2,0,0,0,2.07-4.53,5.6,5.6,0,0,0-1-3.4,6.93,6.93,0,0,0-2.93-2.25l-7.48-3.41A18.76,18.76,0,0,1,26,43.89a10.62,10.62,0,0,1-2.36-7q0-5.65,3.41-8.76T36.63,25a21.48,21.48,0,0,1,7.69,1.28,20.06,20.06,0,0,1,6.45,4.16l-4.26,4.32a21.19,21.19,0,0,0-5-3.18,12.27,12.27,0,0,0-4.85-1,7.1,7.1,0,0,0-4.85,1.51,5.61,5.61,0,0,0-1.71,4.45A5.09,5.09,0,0,0,31.22,40a9.85,9.85,0,0,0,3.31,2.36l6.33,3a22.12,22.12,0,0,1,7.29,5.07,10.61,10.61,0,0,1,2.5,7.27q0,5.87-3.82,8.8T35.26,69.39Zm-.21,9.12V15.89h4.2V78.51Z" transform="translate(0 0)"/><path class="cls-3" d="M62.4,68.78V36.56h5.84l.61,6.81V68.78Zm19.82,0v-21a6.19,6.19,0,0,0-1.52-4.5,5.63,5.63,0,0,0-4.25-1.58q-7.61,0-7.6,8.94L67,42.4h2.5a6.41,6.41,0,0,1,2.37-4.85A10,10,0,0,1,78,36c3.4,0,6,1,7.9,3.1s2.8,5,2.8,8.76v21Z" transform="translate(0 0)"/><path class="cls-3" d="M98.88,68.78V23.19h6.45V68.78Zm19.82,0v-21a6.73,6.73,0,0,0-1.52-4.73,5.49,5.49,0,0,0-4.25-1.65q-7.61,0-7.6,9.24l-1.89-8.27h2.49a6.45,6.45,0,0,1,2.38-4.85,10,10,0,0,1,6.14-1.6c3.4,0,6,1,7.9,3.1s2.8,5,2.8,8.76v21Z" transform="translate(0 0)"/><path class="cls-2" d="M151,69.39q-7.94,0-12.27-4.33t-4.33-12.45q0-7.9,4.24-12.28T150.74,36a17.36,17.36,0,0,1,8.07,1.75,10.19,10.19,0,0,1,4.79,4.94l-4.95,3.74a9.81,9.81,0,0,0-3.5-3.43,9.13,9.13,0,0,0-4.65-1.22,8.9,8.9,0,0,0-6.95,2.75q-2.48,2.75-2.47,7.83,0,5.5,2.76,8.4t7.87,2.91c1.63,0,3.23-.07,4.82-.22s3.15-.33,4.67-.57l.73,5.65a38.51,38.51,0,0,1-5.44.73C154.62,69.33,152.79,69.39,151,69.39Z" transform="translate(0 0)"/><path class="cls-2" d="M169.41,28.48V23.19h10v5.29Zm20.06,40.91c-3.73,0-6.42-1-8.09-3s-2.49-5.27-2.49-9.73V23.19h6.45V56.32a15,15,0,0,0,.48,4.17,3.88,3.88,0,0,0,1.9,2.37,9.16,9.16,0,0,0,4.18.76,24,24,0,0,0,6.45-1.16l.73,5.66a34.52,34.52,0,0,1-9.61,1.27Z" transform="translate(0 0)"/><path class="cls-2" d="M208.07,68.78V63.49H221v5.29Zm1.83-26.87V36.56h16.9v5.35Zm13.31-10.46A4.5,4.5,0,0,1,220,23.76a4.5,4.5,0,0,1,6.37,6.37A4.35,4.35,0,0,1,223.21,31.45Zm-2.85,37.33V38.39h6.44V68.78Zm5.83,0V63.49h10.52v5.29Z" transform="translate(0 0)"/><path class="cls-3" d="M39.85,140.74q-8.24,0-12.72-4.33T22.65,124q0-7.9,3.8-12.28t10.73-4.38q6.54,0,10.11,4t3.57,11.49q0,2.22-.18,4.14H28.06V122H45q0-4.35-2.07-6.67A7.24,7.24,0,0,0,37.24,113a7.74,7.74,0,0,0-6.37,2.8q-2.27,2.81-2.26,7.9,0,5.59,3.11,8.52t8.86,2.91a34.53,34.53,0,0,0,4-.22c1.29-.16,2.61-.36,4-.63l.79,5.66a45.41,45.41,0,0,1-5.23.7Q41.68,140.74,39.85,140.74Z" transform="translate(0 0)"/><path class="cls-3" d="M60.1,140.13V107.91h5.84l.6,6.81v25.41Zm19.82,0v-21a6.24,6.24,0,0,0-1.52-4.5,5.6,5.6,0,0,0-4.26-1.58q-7.59,0-7.6,8.93l-1.88-8.27h2.49a6.44,6.44,0,0,1,2.37-4.84,10,10,0,0,1,6.14-1.6c3.41,0,6,1,7.91,3.1s2.79,5,2.79,8.76v21Z" transform="translate(0 0)"/><path class="cls-3" d="M93.29,113.2v-5.29h29.19v5.29Zm8.09,11.73V98.18h6.45v26.75Zm13.86,15.81q-7.32,0-10.59-3T101.38,128V122.5h6.45v5.17q0,3.83,1.87,5.56t6.15,1.73a30.53,30.53,0,0,0,3.22-.17c1.14-.11,2.44-.25,3.89-.44l.73,5.66c-1.41.24-2.8.42-4.15.55S116.76,140.74,115.24,140.74Z" transform="translate(0 0)"/><path class="cls-3" d="M141.45,140.74c-3.37,0-6-.81-7.82-2.43a8.67,8.67,0,0,1-2.76-6.87,9.08,9.08,0,0,1,3.81-7.85q3.82-2.73,10.78-2.73a33.18,33.18,0,0,1,5.15.35,18.35,18.35,0,0,1,4,1.05l-1.34,4.37a22.32,22.32,0,0,0-4-.53c-1.3,0-2.62-.07-4-.07q-8.39,0-8.39,4.8a4.36,4.36,0,0,0,1.44,3.49,6,6,0,0,0,4.09,1.25,11,11,0,0,0,5-1,7.41,7.41,0,0,0,3-2.65,6.17,6.17,0,0,0,1-3.31v-3.53l1.88,8.27h-2.55l1-1a8,8,0,0,1-1.29,4.66,7.73,7.73,0,0,1-3.63,2.8A14.93,14.93,0,0,1,141.45,140.74Zm11.37-.31-.43-9.54-.85-2.68v-8.33a5.26,5.26,0,0,0-2.26-4.72q-2.26-1.51-6.74-1.63l-7.72-.21.61-5.72,6.5.09q8,.14,11.87,3.46t3.88,9.71v13.43l5.47.67v5.17Z" transform="translate(0 0)"/><path class="cls-3" d="M169.29,140.13v-5.29h12.89v5.29Zm1.83-26.87v-5.35H188v5.35Zm13.31-10.46a4.49,4.49,0,1,1,3.19-1.32A4.31,4.31,0,0,1,184.43,102.8Zm-2.86,37.33v-30.4H188v30.4Zm5.84,0v-5.29h10.52v5.29Z" transform="translate(0 0)"/></g></svg>