<svg id="Layer_1" data-name="Layer 1" xmlns="http://www.w3.org/2000/svg" width="128" height="128" viewBox="0 0 128 128"><defs><style>.cls-1{fill:#1a1a1a;}.cls-2{fill:#ec2854;}.cls-3{fill:#fff;}</style></defs><rect id="box" class="cls-1" width="128" height="128" rx="4.3"/><path id="wings" class="cls-2" d="M29.45,9.06c-2,.83-6.35,4.1-4.36,7a7.31,7.31,0,0,0,3.79,2.66c1.29.4,2.87-.1,4.05.44-.25.62-1.14,2.86-1.9,2.69a4.25,4.25,0,0,0-4,1,8.34,8.34,0,0,0-9.12-3.57c2.66-3.27,2-6.7-.78-9.83C15.47,7.63,11.37,4.94,8.74,6c6.58-2.74,14.58-.67,20.71,3-1.06.44-.43-.26,0,0Zm16.63,0c2,.83,6.35,4.1,4.37,7a7.35,7.35,0,0,1-3.79,2.66c-1.29.4-2.88-.1-4.06.44.25.62,1.14,2.85,1.9,2.69a4.26,4.26,0,0,1,4,1,8.33,8.33,0,0,1,9.11-3.57c-2.65-3.28-2-6.7.78-9.83C60.07,7.63,64.16,4.94,66.79,6c-6.57-2.74-14.58-.67-20.71,3C47.15,9.5,46.52,8.8,46.08,9.06Z" transform="translate(0 0)"/><g id="logo"><path class="cls-3" d="M17.63,34.7a18.75,18.75,0,0,1-3.44-.3,13.53,13.53,0,0,1-3-.89l.39-3.07a20.15,20.15,0,0,0,3.23,1.09,13,13,0,0,0,3,.37A5.41,5.41,0,0,0,21,31.15a2.59,2.59,0,0,0,1-2.26,2.79,2.79,0,0,0-.51-1.7,3.57,3.57,0,0,0-1.47-1.13l-3.74-1.7A9.4,9.4,0,0,1,13,21.94a5.32,5.32,0,0,1-1.18-3.51,5.59,5.59,0,0,1,1.71-4.37,6.87,6.87,0,0,1,4.82-1.56,10.84,10.84,0,0,1,3.84.64,9.86,9.86,0,0,1,3.22,2.09l-2.12,2.15a10.83,10.83,0,0,0-2.5-1.58,6.18,6.18,0,0,0-2.43-.5,3.56,3.56,0,0,0-2.42.75,2.8,2.8,0,0,0-.86,2.23A2.57,2.57,0,0,0,15.61,20a4.92,4.92,0,0,0,1.66,1.18l3.16,1.49a10.94,10.94,0,0,1,3.65,2.54,5.28,5.28,0,0,1,1.24,3.63,5.21,5.21,0,0,1-1.9,4.4C22.14,34.21,20.22,34.7,17.63,34.7Zm-.1,4.56V8h2.09V39.26Z" transform="translate(0 0)"/><path class="cls-3" d="M31.2,34.39V18.28h2.92l.3,3.41v12.7Zm9.91,0V23.9a3.11,3.11,0,0,0-.76-2.25,2.84,2.84,0,0,0-2.13-.79q-3.8,0-3.8,4.47l-.94-4.13h1.25a3.22,3.22,0,0,1,1.18-2.43A5,5,0,0,1,39,18a5,5,0,0,1,4,1.55,6.3,6.3,0,0,1,1.39,4.37V34.39Z" transform="translate(0 0)"/><path class="cls-3" d="M49.44,34.39V11.59h3.22v22.8Zm9.91,0V23.9a3.35,3.35,0,0,0-.76-2.36,2.75,2.75,0,0,0-2.13-.83q-3.8,0-3.8,4.62l-.94-4.13H53a3.22,3.22,0,0,1,1.18-2.43A5,5,0,0,1,57.22,18a5,5,0,0,1,4,1.55,6.25,6.25,0,0,1,1.4,4.37V34.39Z" transform="translate(0 0)"/><path class="cls-2" d="M75.49,34.7a8.31,8.31,0,0,1-6.13-2.17,8.43,8.43,0,0,1-2.17-6.22,8.45,8.45,0,0,1,2.12-6.14A8.07,8.07,0,0,1,75.37,18a8.7,8.7,0,0,1,4,.87,5.11,5.11,0,0,1,2.39,2.47l-2.48,1.87a4.88,4.88,0,0,0-1.75-1.72,4.62,4.62,0,0,0-2.32-.61,4.41,4.41,0,0,0-3.47,1.38,5.63,5.63,0,0,0-1.24,3.91,5.88,5.88,0,0,0,1.38,4.21,5.2,5.2,0,0,0,3.94,1.45c.81,0,1.61,0,2.41-.11s1.57-.17,2.33-.29L81,34.24a19.81,19.81,0,0,1-2.72.36C77.31,34.67,76.39,34.7,75.49,34.7Z" transform="translate(0 0)"/><path class="cls-2" d="M84.7,14.24V11.59h5v2.65Zm10,20.46a5,5,0,0,1-4-1.52q-1.25-1.53-1.24-4.87V11.59h3.22V28.16a7.42,7.42,0,0,0,.24,2.08,1.93,1.93,0,0,0,1,1.19,4.58,4.58,0,0,0,2.09.38,11.69,11.69,0,0,0,3.22-.58l.37,2.83a18.45,18.45,0,0,1-2.37.48A16.85,16.85,0,0,1,94.73,34.7Z" transform="translate(0 0)"/><path class="cls-2" d="M104,34.39V31.75h6.44v2.64ZM105,21V18.28h8.45V21Zm6.66-5.23A2.26,2.26,0,0,1,110,11.88a2.27,2.27,0,0,1,3.18,0,2.26,2.26,0,0,1,0,3.19A2.15,2.15,0,0,1,111.61,15.73Zm-1.43,18.66V19.19h3.22v15.2Zm2.92,0V31.75h5.26v2.64Z" transform="translate(0 0)"/><path class="cls-3" d="M19.93,70.37a8.74,8.74,0,0,1-6.36-2.17A8.22,8.22,0,0,1,11.32,62a9.1,9.1,0,0,1,1.9-6.14,6.74,6.74,0,0,1,5.37-2.19,6.44,6.44,0,0,1,5.05,2,8.28,8.28,0,0,1,1.79,5.74q0,1.11-.09,2.07H14V61h8.48a4.87,4.87,0,0,0-1-3.34,3.61,3.61,0,0,0-2.86-1.16,3.83,3.83,0,0,0-3.18,1.4,6.09,6.09,0,0,0-1.14,3.95,5.54,5.54,0,0,0,1.56,4.25,6.21,6.21,0,0,0,4.43,1.46,18.47,18.47,0,0,0,2-.11c.65-.08,1.3-.18,2-.31l.4,2.82a19.78,19.78,0,0,1-2.62.35C21.23,70.34,20.53,70.37,19.93,70.37Z" transform="translate(0 0)"/><path class="cls-3" d="M30.05,70.07V54H33l.3,3.41V70.07Zm9.91,0V59.58a3.1,3.1,0,0,0-.76-2.25,2.81,2.81,0,0,0-2.13-.79q-3.8,0-3.8,4.47l-.94-4.14h1.25a3.2,3.2,0,0,1,1.18-2.42,5,5,0,0,1,3.07-.8,5.06,5.06,0,0,1,4,1.55,6.26,6.26,0,0,1,1.4,4.38V70.07Z" transform="translate(0 0)"/><path class="cls-3" d="M46.65,56.6V54H61.24V56.6Zm4,5.87V49.09h3.22V62.47Zm6.93,7.9q-3.66,0-5.3-1.52c-1.09-1-1.63-2.64-1.63-4.86V61.25h3.22v2.58a3.63,3.63,0,0,0,.94,2.79,4.5,4.5,0,0,0,3.08.86c.5,0,1,0,1.61-.08l1.94-.22L61.85,70c-.71.13-1.4.22-2.08.28S58.38,70.37,57.62,70.37Z" transform="translate(0 0)"/><path class="cls-3" d="M70.72,70.37a5.71,5.71,0,0,1-3.9-1.22,4.3,4.3,0,0,1-1.39-3.43,4.54,4.54,0,0,1,1.91-3.92,9.08,9.08,0,0,1,5.39-1.37,18.1,18.1,0,0,1,2.58.17,9.79,9.79,0,0,1,2,.53l-.67,2.19a11.72,11.72,0,0,0-2-.27c-.65,0-1.31,0-2,0q-4.2,0-4.2,2.4a2.16,2.16,0,0,0,.73,1.75,3,3,0,0,0,2,.63,5.6,5.6,0,0,0,2.52-.52A3.86,3.86,0,0,0,75.27,66a3.14,3.14,0,0,0,.5-1.66V62.53l.94,4.13H75.44l.51-.49a4,4,0,0,1-.64,2.34,3.91,3.91,0,0,1-1.82,1.4A7.69,7.69,0,0,1,70.72,70.37Zm5.69-.15-.21-4.77-.43-1.34V59.94a2.64,2.64,0,0,0-1.13-2.36,6.49,6.49,0,0,0-3.37-.81l-3.86-.11.3-2.86,3.26.05q4,.06,5.93,1.72a6.06,6.06,0,0,1,1.94,4.86v6.72l2.74.33v2.59Z" transform="translate(0 0)"/><path class="cls-3" d="M84.65,70.07V67.42h6.44v2.65Zm.91-13.44V54H94v2.68Zm6.65-5.23a2.25,2.25,0,1,1,1.6-3.84,2.13,2.13,0,0,1,.65,1.59,2.24,2.24,0,0,1-2.25,2.25ZM90.79,70.07V54.87H94v15.2Zm2.92,0V67.42H99v2.65Z" transform="translate(0 0)"/></g></svg>