<svg id="Layer_1" data-name="Layer 1" xmlns="http://www.w3.org/2000/svg" width="1024" height="1024" viewBox="0 0 1024 1024"><defs><style>.cls-1{fill:#1a1a1a;}.cls-2{fill:#ec2854;}.cls-3{fill:#fff;}</style></defs><rect id="box" class="cls-1" width="1024" height="1024" rx="34.37"/><path id="wings" class="cls-2" d="M235.6,72.49c-16,6.66-50.78,32.78-34.91,56.31,7,10.41,19.21,17.77,30.31,21.25,10.34,3.24,23-.74,32.47,3.58-2,4.92-9.13,22.82-15.23,21.5-11.39-2.45-22.91-.43-31.85,8.17-18.26-25.33-44.27-35.61-72.95-28.58,21.26-26.2,16.11-53.64-6.22-78.61C123.73,61,91,39.54,70,48.32,122.52,26.42,186.6,43,235.6,72.49c-8.49,3.54-3.48-2.09,0,0Zm133.07,0c16,6.66,50.79,32.78,34.92,56.31-7,10.41-19.21,17.77-30.32,21.25-10.33,3.24-23-.74-32.46,3.58,2,4.93,9.11,22.8,15.22,21.5,11.39-2.45,22.92-.43,31.85,8.17,18.26-25.33,44.28-35.61,72.95-28.58-21.25-26.21-16.11-53.63,6.23-78.61C480.54,61,513.28,39.54,534.33,48.32,481.76,26.42,417.68,43,368.67,72.49,377.17,76,372.16,70.39,368.67,72.49Z" transform="translate(0 0)"/><g id="logo"><path class="cls-3" d="M141.06,277.57a151.77,151.77,0,0,1-27.55-2.37,109.92,109.92,0,0,1-23.77-7.12l3.16-24.56a161,161,0,0,0,25.84,8.69,104,104,0,0,0,24.26,3q17,0,25.29-5.95t8.27-18.12a22.55,22.55,0,0,0-4.07-13.62,28.34,28.34,0,0,0-11.74-9l-29.91-13.62q-17.62-8-27-19.33t-9.43-28.09q0-22.62,13.62-35T146.53,100q17.39,0,30.76,5.11t25.78,16.65l-17,17.27q-10.71-8.76-20-12.71a49.15,49.15,0,0,0-19.39-4q-12.53,0-19.4,6t-6.87,17.81q0,8.4,4.5,13.68t13.26,9.43l25.29,11.91q19.22,9,29.18,20.31t10,29.06q0,23.48-15.26,35.2T141.06,277.57Zm-.85,36.48V63.56H157V314.05Z" transform="translate(0 0)"/><path class="cls-3" d="M249.61,275.14V146.24H273l2.43,27.24V275.14Zm79.28,0V191.23q0-11.67-6.08-18t-17-6.32q-30.41,0-30.4,35.75l-7.54-33.08h10q1.1-13,9.49-19.39t24.56-6.39q20.43,0,31.62,12.41t11.18,35v83.91Z" transform="translate(0 0)"/><path class="cls-3" d="M395.53,275.14V92.74h25.78v182.4Zm79.28,0V191.23q0-12.27-6.08-18.9t-17-6.63q-30.4,0-30.4,37l-7.54-33.08h10q1.1-13,9.48-19.39t24.57-6.39q20.41,0,31.61,12.41t11.19,35v83.91Z" transform="translate(0 0)"/><path class="cls-2" d="M603.94,277.57q-31.73,0-49.06-17.33t-17.33-49.79q0-31.62,17-49.13T603,143.81q18.84,0,32.28,7t19.15,19.76l-19.82,15a39,39,0,0,0-14-13.74,36.87,36.87,0,0,0-18.6-4.86q-17.88,0-27.79,11t-9.91,31.31q0,22,11.07,33.62t31.49,11.61q9.72,0,19.27-.85t18.67-2.31l2.92,22.62A158.69,158.69,0,0,1,626,276.84Q614.76,277.56,603.94,277.57Z" transform="translate(0 0)"/><path class="cls-2" d="M677.63,113.9V92.74h40.13V113.9Zm80.25,163.67q-22.36,0-32.34-12.16t-10-38.91V92.74h25.78V225.28q0,10.22,1.94,16.66a15.3,15.3,0,0,0,7.6,9.48q5.65,3,16.72,3,10.1,0,25.78-4.62l2.92,22.62a138.46,138.46,0,0,1-38.43,5.11Z" transform="translate(0 0)"/><path class="cls-2" d="M832.3,275.14V254h51.56v21.16Zm7.29-107.49V146.24H907.2v21.41Zm53.26-41.83a18,18,0,0,1-12.7-30.77,18,18,0,0,1,25.47,25.48A17.3,17.3,0,0,1,892.85,125.82ZM881.42,275.14V153.54H907.2v121.6Zm23.35,0V254h42.07v21.16Z" transform="translate(0 0)"/><path class="cls-3" d="M159.42,563q-33,0-50.89-17.32t-17.94-49.8q0-31.6,15.2-49.12t42.93-17.51q26.13,0,40.43,15.81t14.28,46q0,8.88-.72,16.54H112.24v-19.7h67.85q0-17.38-8.27-26.69T149,451.81q-16.41,0-25.47,11.19t-9.06,31.62q0,22.36,12.46,34t35.45,11.68a135.16,135.16,0,0,0,15.8-.92q7.79-.9,15.81-2.49l3.16,22.62a168.53,168.53,0,0,1-20.91,2.79Q166.71,563,159.42,563Z" transform="translate(0 0)"/><path class="cls-3" d="M240.4,560.52V431.63h23.35l2.43,27.24V560.52Zm79.28,0v-83.9q0-11.67-6.08-18t-17-6.32q-30.4,0-30.4,35.75L258.64,455h10q1.09-13,9.48-19.4t24.57-6.38q20.43,0,31.61,12.4t11.19,35v83.9Z" transform="translate(0 0)"/><path class="cls-3" d="M373.18,452.79V431.63H489.91v21.16Zm32.35,46.93v-107H431.3v107ZM461,563q-29.3,0-42.37-12.16t-13.07-38.91V490H431.3v20.67q0,15.31,7.48,22.25t24.63,6.93q6.07,0,12.88-.67t15.57-1.76L494.78,560q-8.52,1.46-16.6,2.18T461,563Z" transform="translate(0 0)"/><path class="cls-3" d="M565.79,563q-20.19,0-31.25-9.73t-11.07-27.48q0-20.42,15.26-31.37t43.11-10.94a136.46,136.46,0,0,1,20.61,1.4A74.71,74.71,0,0,1,618.56,489l-5.35,17.51a89.9,89.9,0,0,0-15.93-2.13q-7.78-.3-15.93-.3-33.55,0-33.56,19.21,0,9,5.78,14t16.35,5q12,0,20.13-4.13a29.75,29.75,0,0,0,12.1-10.58,24.81,24.81,0,0,0,4-13.26v-14.1l7.54,33.07H603.48l4.14-3.89q0,11.19-5.17,18.67a31,31,0,0,1-14.53,11.18Q578.56,563,565.79,563Zm45.48-1.21-1.71-38.18-3.4-10.7V479.54q0-12.89-9.06-18.91t-26.93-6.5l-30.89-.86,2.43-22.86,26,.37q32,.48,47.49,13.8t15.5,38.85v53.74l21.89,2.68v20.67Z" transform="translate(0 0)"/><path class="cls-3" d="M677.17,560.52V539.36h51.56v21.16ZM684.47,453v-21.4h67.6V453Zm53.25-41.83a18,18,0,1,1,12.77-5.29A17.3,17.3,0,0,1,737.72,411.2ZM726.29,560.52V438.93h25.78V560.52Zm23.35,0V539.36h42.07v21.16Z" transform="translate(0 0)"/></g></svg>