<svg id="Layer_1" data-name="Layer 1" xmlns="http://www.w3.org/2000/svg" width="2048" height="2048" viewBox="0 0 2048 2048"><defs><style>.cls-1{fill:#1a1a1a;}.cls-2{fill:#ec2854;}.cls-3{fill:#fff;}</style></defs><rect id="box" class="cls-1" width="2048" height="2048" rx="68.73"/><path id="wings" class="cls-2" d="M471.21,145c-32,13.3-101.57,65.54-69.82,112.62,14,20.81,38.4,35.52,60.62,42.48,20.67,6.48,46-1.46,64.93,7.17-4,9.83-18.26,45.63-30.46,43-22.78-4.9-45.82-.86-63.7,16.35-36.52-50.65-88.55-71.22-145.89-57.17,42.5-52.39,32.2-107.26-12.46-157.22-27-30.16-92.44-73.12-134.54-55.57C245.05,52.84,373.2,85.94,471.21,145c-17,7.07-7-4.2,0,0Zm266.14,0c32,13.3,101.57,65.54,69.82,112.62-14,20.81-38.41,35.52-60.62,42.49-20.67,6.48-46-1.47-64.94,7.16,4,9.85,18.23,45.6,30.46,43,22.78-4.89,45.82-.86,63.69,16.35,36.52-50.65,88.56-71.23,145.89-57.17-42.48-52.4-32.22-107.25,12.47-157.22,27-30.15,92.45-73.13,134.54-55.58C963.51,52.85,835.36,85.92,737.35,145,754.33,152.06,744.31,140.79,737.35,145Z"/><g id="logo"><path class="cls-3" d="M282.11,555.13A303.16,303.16,0,0,1,227,550.39a219.48,219.48,0,0,1-47.54-14.22L185.81,487a322.71,322.71,0,0,0,51.68,17.39,208.43,208.43,0,0,0,48.51,6q34,0,50.59-11.92t16.53-36.23q0-16-8.14-27.24t-23.47-18l-59.83-27.23q-35.27-16.06-54.11-38.67t-18.84-56.18q0-45.23,27.23-70t77.1-24.8q34.77,0,61.52,10.21t51.56,33.32l-34.05,34.53q-21.4-17.5-40-25.41a98.23,98.23,0,0,0-38.79-7.91q-25.05,0-38.79,12t-13.74,35.63q0,16.78,9,27.36t26.51,18.85l50.58,23.83q38.42,18,58.37,40.61t19.94,58.12q0,47-30.52,70.41T282.11,555.13Zm-1.7,73v-501H314v501Z"/><path class="cls-3" d="M499.23,550.27V292.49h46.69L550.78,347V550.27Zm158.56,0V382.47q0-23.34-12.16-36t-34-12.65q-60.8,0-60.8,71.5l-15.07-66.15h19.94q2.19-26,19-38.79t49.12-12.76q40.86,0,63.23,24.8t22.37,70v167.8Z"/><path class="cls-3" d="M791.06,550.27V185.48h51.55V550.27Zm158.56,0V382.47q0-24.56-12.16-37.82T903.41,331.4q-60.79,0-60.8,73.93l-15.08-66.15h20q2.19-26,19-38.79t49.13-12.76q40.86,0,63.23,24.8t22.37,70v167.8Z"/><path class="cls-2" d="M1207.88,555.13q-63.47,0-98.12-34.65t-34.66-99.59q0-63.22,33.93-98.25t96.91-35q37.69,0,64.57,14t38.3,39.52L1269.17,371a78.32,78.32,0,0,0-28-27.48,73.75,73.75,0,0,0-37.21-9.73q-35.74,0-55.57,22t-19.82,62.62q0,44,22.13,67.24t63,23.23q19.46,0,38.55-1.7t37.33-4.62l5.83,45.23a316.81,316.81,0,0,1-43.53,5.84Q1229.52,555.14,1207.88,555.13Z"/><path class="cls-2" d="M1355.26,227.8V185.48h80.25V227.8Zm160.5,327.33q-44.74,0-64.68-24.31T1431.13,453V185.48h51.56V450.56q0,20.43,3.89,33.32a30.62,30.62,0,0,0,15.2,19q11.31,6.07,33.44,6.08,20.17,0,51.56-9.24l5.83,45.23a276.27,276.27,0,0,1-76.85,10.21Z"/><path class="cls-2" d="M1664.6,550.27V508h103.11v42.31Zm14.59-215v-42.8H1814.4v42.8Zm106.52-83.66a36,36,0,0,1-25.42-61.52,36,36,0,0,1,51,50.94A34.5,34.5,0,0,1,1785.71,251.63Zm-22.86,298.64V307.08h51.55V550.27Zm46.69,0V508h84.14v42.31Z"/><path class="cls-3" d="M318.83,1125.91q-65.9,0-101.77-34.66t-35.87-99.59q0-63.23,30.4-98.25t85.84-35q52.29,0,80.86,31.61t28.58,91.93q0,17.74-1.46,33.07H224.48v-39.4h135.7q0-34.77-16.54-53.38t-45.72-18.6q-32.84,0-51,22.37t-18.12,63.23q0,44.74,24.93,68.1t70.89,23.34a272.87,272.87,0,0,0,31.62-1.82q15.56-1.83,31.61-5l6.32,45.24a341,341,0,0,1-41.83,5.59Q333.43,1125.91,318.83,1125.91Z"/><path class="cls-3" d="M480.8,1121V863.26h46.69l4.87,54.47V1121Zm158.56,0V953.24q0-23.34-12.16-36T593.15,904.6q-60.79,0-60.79,71.5L517.28,910h19.94q2.19-26,19-38.79t49.12-12.76q40.86,0,63.23,24.8t22.38,70V1121Z"/><path class="cls-3" d="M746.36,905.57V863.26H979.83v42.31Zm64.69,93.88v-214h51.56v214ZM922,1125.91q-58.62,0-84.75-24.32t-26.15-77.83V980h51.56v41.34q0,30.64,14.95,44.51t49.25,13.86q12.16,0,25.78-1.34t31.13-3.53l5.83,45.24q-17,2.91-33.19,4.38T922,1125.91Z"/><path class="cls-3" d="M1131.58,1125.91q-40.38,0-62.5-19.46t-22.13-55q0-40.86,30.52-62.74t86.21-21.89a273,273,0,0,1,41.22,2.79,150,150,0,0,1,32.22,8.39l-10.7,35a177.93,177.93,0,0,0-31.86-4.25q-15.55-.6-31.85-.61-67.12,0-67.13,38.43,0,18,11.56,28t32.71,10q24.08,0,40.24-8.27t24.2-21.15q8-12.9,8-26.51v-28.21l15.07,66.15H1207l8.26-7.79q0,22.38-10.33,37.33t-29.06,22.38Q1157.11,1125.9,1131.58,1125.91Zm91-2.44-3.4-76.36-6.81-21.4V959.08q0-25.79-18.12-37.82t-53.87-13l-61.77-1.7,4.87-45.72,52,.73q64,1,95,27.6t31,77.7v107.49l43.78,5.35V1121Z"/><path class="cls-3" d="M1354.34,1121v-42.31h103.11V1121Zm14.59-215v-42.8h135.22v42.8Zm106.52-83.66A35.92,35.92,0,1,1,1501,811.82,34.61,34.61,0,0,1,1475.45,822.4ZM1452.59,1121V877.85h51.56V1121Zm46.69,0v-42.31h84.15V1121Z"/></g></svg>