<svg id="Layer_1" data-name="Layer 1" xmlns="http://www.w3.org/2000/svg" width="64" height="64" viewBox="0 0 64 64"><defs><style>.cls-1{fill:#1a1a1a;}.cls-2{fill:#ec2854;}.cls-3{fill:#fff;}</style></defs><rect id="box" class="cls-1" width="64" height="64" rx="2.15"/><path id="wings" class="cls-2" d="M14.73,4.53c-1,.42-3.18,2.05-2.19,3.52a3.67,3.67,0,0,0,1.9,1.33c.64.2,1.44-.05,2,.22-.13.31-.57,1.43-1,1.35a2.1,2.1,0,0,0-2,.51A4.14,4.14,0,0,0,9,9.67C10.29,8,10,6.32,8.58,4.76,7.73,3.81,5.69,2.47,4.37,3c3.29-1.37,7.29-.33,10.36,1.51-.54.22-.22-.13,0,0Zm8.31,0c1,.42,3.18,2.05,2.18,3.52a3.65,3.65,0,0,1-1.89,1.33c-.65.2-1.44-.05-2,.22.13.31.57,1.43.95,1.35a2.1,2.1,0,0,1,2,.51A4.16,4.16,0,0,1,28.8,9.67c-1.33-1.64-1-3.35.39-4.91C30,3.81,32.08,2.47,33.4,3,30.11,1.65,26.11,2.69,23,4.53,23.57,4.75,23.26,4.4,23,4.53Z" transform="translate(0 0)"/><g id="logo"><path class="cls-3" d="M8.82,17.35a9.45,9.45,0,0,1-1.73-.15,7.3,7.3,0,0,1-1.48-.44l.2-1.54a9.23,9.23,0,0,0,1.61.54A6.26,6.26,0,0,0,8.94,16a2.71,2.71,0,0,0,1.58-.37A1.32,1.32,0,0,0,11,14.45a1.44,1.44,0,0,0-.26-.86,1.76,1.76,0,0,0-.73-.56l-1.87-.85A4.57,4.57,0,0,1,6.49,11,2.59,2.59,0,0,1,5.9,9.22,2.78,2.78,0,0,1,6.75,7a3.44,3.44,0,0,1,2.41-.78,5.44,5.44,0,0,1,1.92.32,5,5,0,0,1,1.61,1L11.63,8.69a5.31,5.31,0,0,0-1.25-.79,3,3,0,0,0-1.21-.25A1.8,1.8,0,0,0,8,8a1.42,1.42,0,0,0-.43,1.11,1.28,1.28,0,0,0,.29.86,2.33,2.33,0,0,0,.82.58l1.58.75A5.55,5.55,0,0,1,12,12.6a2.68,2.68,0,0,1,.62,1.82,2.59,2.59,0,0,1-.95,2.19A4.71,4.71,0,0,1,8.82,17.35Zm-.06,2.28V4H9.81V19.63Z" transform="translate(0 0)"/><path class="cls-3" d="M15.6,17.2V9.14h1.46l.15,1.7V17.2Zm5,0V12a1.57,1.57,0,0,0-.38-1.12,1.4,1.4,0,0,0-1.07-.4c-1.27,0-1.9.75-1.9,2.24l-.47-2.07h.62A1.61,1.61,0,0,1,18,9.39,2.47,2.47,0,0,1,19.49,9a2.56,2.56,0,0,1,2,.77,3.2,3.2,0,0,1,.7,2.19V17.2Z" transform="translate(0 0)"/><path class="cls-3" d="M24.72,17.2V5.8h1.61V17.2Zm5,0V12a1.66,1.66,0,0,0-.39-1.18,1.34,1.34,0,0,0-1.06-.41c-1.27,0-1.9.77-1.9,2.31l-.47-2.07h.62a1.61,1.61,0,0,1,.6-1.21A2.47,2.47,0,0,1,28.61,9a2.56,2.56,0,0,1,2,.77,3.2,3.2,0,0,1,.7,2.19V17.2Z" transform="translate(0 0)"/><path class="cls-2" d="M37.75,17.35a4.15,4.15,0,0,1-3.07-1.08,4.24,4.24,0,0,1-1.08-3.12,4.23,4.23,0,0,1,1.06-3.07,4,4,0,0,1,3-1.09,4.2,4.2,0,0,1,2,.44,2.55,2.55,0,0,1,1.2,1.23l-1.24.94a2.47,2.47,0,0,0-.87-.86,2.27,2.27,0,0,0-1.16-.31,2.21,2.21,0,0,0-1.74.69,2.8,2.8,0,0,0-.62,2,3,3,0,0,0,.69,2.1,2.61,2.61,0,0,0,2,.72,11.91,11.91,0,0,0,1.2-.05c.4,0,.79-.08,1.17-.14l.18,1.41a9.9,9.9,0,0,1-1.36.18C38.66,17.33,38.2,17.35,37.75,17.35Z" transform="translate(0 0)"/><path class="cls-2" d="M42.35,7.12V5.8h2.51V7.12Zm5,10.23a2.45,2.45,0,0,1-2-.76,3.8,3.8,0,0,1-.63-2.43V5.8h1.61v8.28a3.67,3.67,0,0,0,.13,1,.94.94,0,0,0,.47.59,2.23,2.23,0,0,0,1,.19,6,6,0,0,0,1.61-.28L49.77,17a9.51,9.51,0,0,1-1.18.24A9.37,9.37,0,0,1,47.37,17.35Z" transform="translate(0 0)"/><path class="cls-2" d="M52,17.2V15.87h3.22V17.2Zm.45-6.72V9.14H56.7v1.34ZM55.8,7.86a1.13,1.13,0,0,1-1.12-1.12A1.12,1.12,0,1,1,55.8,7.86Zm-.71,9.34V9.6H56.7v7.6Zm1.46,0V15.87h2.63V17.2Z" transform="translate(0 0)"/><path class="cls-3" d="M10,35.18A4.41,4.41,0,0,1,6.78,34.1,4.15,4.15,0,0,1,5.66,31a4.55,4.55,0,0,1,1-3.07,3.37,3.37,0,0,1,2.68-1.09,3.22,3.22,0,0,1,2.53,1,4.14,4.14,0,0,1,.89,2.88c0,.37,0,.71,0,1H7V30.49h4.25a2.45,2.45,0,0,0-.52-1.67,1.81,1.81,0,0,0-1.43-.58,1.93,1.93,0,0,0-1.59.7,3,3,0,0,0-.57,2A2.76,2.76,0,0,0,7.93,33a3.11,3.11,0,0,0,2.22.73,7.93,7.93,0,0,0,1-.06,8.46,8.46,0,0,0,1-.15l.2,1.41a12,12,0,0,1-1.31.18Z" transform="translate(0 0)"/><path class="cls-3" d="M15,35V27h1.46l.16,1.7V35Zm5,0V29.79a1.59,1.59,0,0,0-.38-1.13,1.41,1.41,0,0,0-1.06-.39c-1.27,0-1.9.74-1.9,2.23l-.48-2.06h.63a1.6,1.6,0,0,1,.59-1.22,2.55,2.55,0,0,1,1.54-.39,2.49,2.49,0,0,1,2,.77,3.15,3.15,0,0,1,.7,2.19V35Z" transform="translate(0 0)"/><path class="cls-3" d="M23.32,28.3V27h7.3V28.3Zm2,2.93V24.54H27v6.69Zm3.46,3.95a3.81,3.81,0,0,1-2.65-.76A3.18,3.18,0,0,1,25.35,32V30.63H27v1.29a1.82,1.82,0,0,0,.46,1.39,2.25,2.25,0,0,0,1.54.43,7.7,7.7,0,0,0,.81,0l1-.11L30.92,35c-.35.06-.7.11-1,.14S29.19,35.18,28.81,35.18Z" transform="translate(0 0)"/><path class="cls-3" d="M35.36,35.18a2.88,2.88,0,0,1-2-.6,2.18,2.18,0,0,1-.69-1.72,2.27,2.27,0,0,1,1-2,4.57,4.57,0,0,1,2.7-.69,8.1,8.1,0,0,1,1.28.09,5.12,5.12,0,0,1,1,.26l-.33,1.1a5.08,5.08,0,0,0-1-.13c-.32,0-.66,0-1,0-1.39,0-2.09.4-2.09,1.2a1.1,1.1,0,0,0,.36.87,1.5,1.5,0,0,0,1,.31,2.67,2.67,0,0,0,1.26-.26,1.81,1.81,0,0,0,.75-.66,1.51,1.51,0,0,0,.25-.82v-.89l.48,2.07h-.64l.26-.24a2,2,0,0,1-.33,1.16,1.84,1.84,0,0,1-.91.7A3.63,3.63,0,0,1,35.36,35.18Zm2.84-.07-.1-2.39-.22-.67V30a1.3,1.3,0,0,0-.56-1.18,3.25,3.25,0,0,0-1.69-.41l-1.92-.05.15-1.43,1.62,0a4.55,4.55,0,0,1,3,.87,3,3,0,0,1,1,2.42v3.36l1.37.17V35Z" transform="translate(0 0)"/><path class="cls-3" d="M42.32,35V33.71h3.22V35Zm.46-6.72V27H47v1.33Zm3.33-2.61A1.13,1.13,0,0,1,45,24.58a1.08,1.08,0,0,1,.33-.8,1.13,1.13,0,0,1,1.6,0,1.15,1.15,0,0,1,0,1.59A1.09,1.09,0,0,1,46.11,25.7ZM45.39,35v-7.6H47V35Zm1.46,0V33.71h2.63V35Z" transform="translate(0 0)"/></g></svg>