<svg id="Layer_1" data-name="Layer 1" xmlns="http://www.w3.org/2000/svg" width="28" height="28" viewBox="0 0 28 28"><defs><style>.cls-1{fill:#1a1a1a;}.cls-2{fill:#ec2854;}.cls-3{fill:#fff;}</style></defs><rect id="box" class="cls-1" width="28" height="28" rx="0.94"/><path id="wings" class="cls-2" d="M6.44,2c-.43.18-1.39.9-1,1.54a1.51,1.51,0,0,0,.83.58c.28.09.63,0,.88.1,0,.14-.25.62-.41.59A.93.93,0,0,0,5.92,5a1.83,1.83,0,0,0-2-.78,1.53,1.53,0,0,0-.17-2.15c-.37-.41-1.26-1-1.84-.76A5.22,5.22,0,0,1,6.44,2c-.23.1-.09-.06,0,0Zm3.64,0c.44.18,1.39.9,1,1.54a1.59,1.59,0,0,1-.83.58c-.29.09-.63,0-.89.1,0,.14.25.62.42.59a.94.94,0,0,1,.87.22,1.82,1.82,0,0,1,2-.78,1.53,1.53,0,0,1,.17-2.15c.37-.41,1.27-1,1.84-.76A5.22,5.22,0,0,0,10.08,2C10.31,2.08,10.18,1.92,10.08,2Z"/><g id="logo"><path class="cls-3" d="M3.86,7.59a3.7,3.7,0,0,1-.76-.07,2.72,2.72,0,0,1-.65-.19l.09-.67a5.4,5.4,0,0,0,.71.24A3.05,3.05,0,0,0,3.91,7a1.25,1.25,0,0,0,.69-.16.59.59,0,0,0,.23-.5A.62.62,0,0,0,4.72,6,.81.81,0,0,0,4.4,5.7l-.82-.37a2,2,0,0,1-.74-.53A1.18,1.18,0,0,1,2.58,4a1.24,1.24,0,0,1,.37-1A1.55,1.55,0,0,1,4,2.74a2.25,2.25,0,0,1,.84.14,2.08,2.08,0,0,1,.7.45l-.46.47a2.29,2.29,0,0,0-.55-.34A1.23,1.23,0,0,0,4,3.35a.76.76,0,0,0-.53.16A.6.6,0,0,0,3.29,4a.55.55,0,0,0,.12.37,1.06,1.06,0,0,0,.37.26L4.47,5a2.55,2.55,0,0,1,.8.55,1.17,1.17,0,0,1,.27.8,1.14,1.14,0,0,1-.42,1A2.09,2.09,0,0,1,3.86,7.59Zm0,1V1.74h.46V8.59Z"/><path class="cls-3" d="M6.83,7.52V4h.63l.07.74V7.52ZM9,7.52V5.23a.67.67,0,0,0-.16-.49.61.61,0,0,0-.47-.18c-.55,0-.83.33-.83,1l-.21-.9H7.6a.67.67,0,0,1,.26-.53,1.05,1.05,0,0,1,.67-.18,1.11,1.11,0,0,1,.86.34,1.37,1.37,0,0,1,.31,1V7.52Z"/><path class="cls-3" d="M10.81,7.52v-5h.71v5Zm2.17,0V5.23a.75.75,0,0,0-.16-.52.61.61,0,0,0-.47-.18c-.55,0-.83.34-.83,1l-.21-.9h.28a.67.67,0,0,1,.26-.53,1.05,1.05,0,0,1,.67-.18,1.11,1.11,0,0,1,.86.34,1.37,1.37,0,0,1,.31,1V7.52Z"/><path class="cls-2" d="M16.51,7.59a1.85,1.85,0,0,1-1.34-.47,1.88,1.88,0,0,1-.47-1.37,1.85,1.85,0,0,1,.46-1.34,1.76,1.76,0,0,1,1.33-.48,2,2,0,0,1,.88.19,1.09,1.09,0,0,1,.52.54l-.54.41a1.06,1.06,0,0,0-.89-.51.94.94,0,0,0-.76.31,1.22,1.22,0,0,0-.27.85,1.29,1.29,0,0,0,.3.92,1.14,1.14,0,0,0,.86.32l.53,0,.51-.07.08.62a3.81,3.81,0,0,1-.59.08Z"/><path class="cls-2" d="M18.53,3.11V2.54h1.1v.57Zm2.19,4.48a1.08,1.08,0,0,1-.88-.33,1.7,1.7,0,0,1-.27-1.07V2.54h.7V6.16a1.89,1.89,0,0,0,.05.46.49.49,0,0,0,.21.26A1.08,1.08,0,0,0,21,7a2.38,2.38,0,0,0,.7-.13l.08.62c-.18,0-.35.08-.51.11A4.63,4.63,0,0,1,20.72,7.59Z"/><path class="cls-2" d="M22.76,7.52V6.94h1.41v.58ZM23,4.58V4h1.85v.58Zm1.45-1.14a.48.48,0,0,1-.34-.14A.49.49,0,0,1,23.92,3a.45.45,0,0,1,.15-.35.44.44,0,0,1,.34-.14.45.45,0,0,1,.35.14.45.45,0,0,1,.15.35.5.5,0,0,1-.5.49ZM24.1,7.52V4.2h.71V7.52Zm.64,0V6.94h1.15v.58Z"/><path class="cls-3" d="M4.36,15.39A1.89,1.89,0,0,1,3,14.92a1.8,1.8,0,0,1-.49-1.36,2,2,0,0,1,.41-1.35,1.51,1.51,0,0,1,1.18-.47,1.4,1.4,0,0,1,1.1.43,1.83,1.83,0,0,1,.39,1.26,3.24,3.24,0,0,1,0,.45H3.07v-.54H4.92a1.06,1.06,0,0,0-.22-.73.8.8,0,0,0-.63-.26.84.84,0,0,0-.69.31,1.3,1.3,0,0,0-.25.86,1.23,1.23,0,0,0,.34.94,1.38,1.38,0,0,0,1,.32,3.11,3.11,0,0,0,.43,0l.43-.07.09.62a4.56,4.56,0,0,1-.57.08Z"/><path class="cls-3" d="M6.57,15.33V11.8h.64l.07.75v2.78Zm2.17,0V13a.65.65,0,0,0-.17-.49.62.62,0,0,0-.46-.17c-.55,0-.83.32-.83,1l-.21-.91h.27a.71.71,0,0,1,.26-.53,1.1,1.1,0,0,1,.68-.17,1.08,1.08,0,0,1,.86.34,1.37,1.37,0,0,1,.31.95v2.3Z"/><path class="cls-3" d="M10.2,12.38V11.8h3.2v.58Zm.89,1.28V10.74h.7v2.92Zm1.51,1.73a1.65,1.65,0,0,1-1.15-.33A1.39,1.39,0,0,1,11.09,14v-.6h.7V14a.78.78,0,0,0,.21.61.94.94,0,0,0,.67.19,2.11,2.11,0,0,0,.35,0l.43,0,.08.61-.46.06A3.47,3.47,0,0,1,12.6,15.39Z"/><path class="cls-3" d="M15.47,15.39a1.27,1.27,0,0,1-.85-.26.93.93,0,0,1-.31-.75,1,1,0,0,1,.42-.86,2,2,0,0,1,1.18-.3,3.13,3.13,0,0,1,.56,0,1.66,1.66,0,0,1,.44.11l-.14.48-.44-.06H15.9c-.61,0-.92.18-.92.53a.46.46,0,0,0,.16.38.64.64,0,0,0,.44.14,1.25,1.25,0,0,0,.55-.11.86.86,0,0,0,.33-.29.64.64,0,0,0,.11-.37v-.38l.21.9H16.5l.12-.1a.83.83,0,0,1-.54.81A1.63,1.63,0,0,1,15.47,15.39Zm1.24,0,0-1-.1-.3v-.91a.58.58,0,0,0-.24-.51,1.43,1.43,0,0,0-.74-.18l-.84,0,.06-.62h.71a2,2,0,0,1,1.3.38,1.29,1.29,0,0,1,.43,1.06v1.47l.59.07v.57Z"/><path class="cls-3" d="M18.52,15.33v-.58h1.41v.58Zm.2-2.94V11.8h1.84v.59Zm1.45-1.15a.47.47,0,0,1-.35-.14.51.51,0,0,1,0-.7.52.52,0,0,1,.35-.14.48.48,0,0,1,.35.14.51.51,0,0,1,0,.7A.45.45,0,0,1,20.17,11.24Zm-.31,4.09V12h.7v3.33Zm.64,0v-.58h1.15v.58Z"/></g></svg>