<svg id="Layer_1" data-name="Layer 1" xmlns="http://www.w3.org/2000/svg" width="512" height="512" viewBox="0 0 512 512"><defs><style>.cls-1{fill:#1a1a1a;}.cls-2{fill:#ec2854;}.cls-3{fill:#fff;}</style></defs><rect id="box" class="cls-1" width="512" height="512" rx="17.18"/><path id="wings" class="cls-2" d="M117.8,36.25c-8,3.32-25.39,16.38-17.45,28.15,3.51,5.21,9.6,8.88,15.15,10.62,5.17,1.62,11.51-.36,16.23,1.8-1,2.45-4.56,11.4-7.61,10.74-5.7-1.22-11.45-.21-15.93,4.09C99.07,79,86.06,73.84,71.72,77.36c10.63-13.1,8-26.82-3.11-39.31C61.87,30.51,45.5,19.77,35,24.16,61.26,13.21,93.3,21.48,117.8,36.25c-4.24,1.76-1.74-1,0,0Zm66.54,0c8,3.32,25.39,16.38,17.45,28.15-3.51,5.21-9.6,8.88-15.15,10.62-5.17,1.62-11.51-.36-16.24,1.8,1,2.46,4.56,11.39,7.62,10.74,5.69-1.22,11.45-.21,15.92,4.09,9.13-12.66,22.14-17.81,36.47-14.29-10.62-13.1-8-26.82,3.12-39.31,6.74-7.53,23.11-18.28,33.63-13.89-26.28-10.95-58.32-2.68-82.82,12.09C188.58,38,186.08,35.2,184.34,36.25Z" transform="translate(0 0)"/><g id="logo"><path class="cls-3" d="M70.53,138.78a75.72,75.72,0,0,1-13.77-1.18A54.92,54.92,0,0,1,44.87,134l1.58-12.28a81.2,81.2,0,0,0,12.92,4.35A52.31,52.31,0,0,0,71.5,127.6q8.5,0,12.65-3t4.13-9.06a11.22,11.22,0,0,0-2-6.81,14.18,14.18,0,0,0-5.86-4.5l-15-6.81q-8.82-4-13.53-9.67a21.2,21.2,0,0,1-4.71-14q0-11.31,6.81-17.51T73.26,50a43,43,0,0,1,15.39,2.55,39.92,39.92,0,0,1,12.88,8.33L93,69.54a42.38,42.38,0,0,0-10-6.36,24.67,24.67,0,0,0-9.7-2q-6.25,0-9.69,3t-3.44,8.9A10.18,10.18,0,0,0,62.44,80a19.28,19.28,0,0,0,6.63,4.71l12.64,6q9.62,4.5,14.6,10.16t5,14.53q0,11.73-7.63,17.6T70.53,138.78ZM70.1,157V31.78h8.39V157Z" transform="translate(0 0)"/><path class="cls-3" d="M124.81,137.57V73.12h11.67l1.22,13.62v50.83Zm39.64,0V95.62q0-5.84-3-9t-8.51-3.16q-15.21,0-15.2,17.87L133.93,84.8h5q.56-6.51,4.74-9.7t12.28-3.19q10.22,0,15.81,6.2t5.6,17.51v41.95Z" transform="translate(0 0)"/><path class="cls-3" d="M197.76,137.57V46.37h12.89v91.2Zm39.64,0V95.62q0-6.15-3-9.46t-8.51-3.31q-15.19,0-15.2,18.48L206.88,84.8h5q.54-6.51,4.74-9.7t12.28-3.19q10.22,0,15.81,6.2t5.59,17.51v41.95Z" transform="translate(0 0)"/><path class="cls-2" d="M302,138.78q-15.87,0-24.53-8.66t-8.66-24.9q0-15.8,8.48-24.56t24.22-8.75a34.6,34.6,0,0,1,16.15,3.49,20.41,20.41,0,0,1,9.57,9.88l-9.91,7.48a19.47,19.47,0,0,0-7-6.87,18.45,18.45,0,0,0-9.3-2.43q-8.94,0-13.89,5.5t-5,15.66q0,11,5.53,16.81t15.75,5.8q4.86,0,9.64-.42c3.18-.29,6.29-.67,9.33-1.16L323.86,137A78.65,78.65,0,0,1,313,138.42Q307.39,138.78,302,138.78Z" transform="translate(0 0)"/><path class="cls-2" d="M338.81,57V46.37h20.07V57Zm40.13,81.83q-11.19,0-16.17-6.08t-5-19.45V46.37h12.89v66.27a29.82,29.82,0,0,0,1,8.33,7.65,7.65,0,0,0,3.81,4.74c1.88,1,4.67,1.52,8.35,1.52a47.66,47.66,0,0,0,12.89-2.31l1.46,11.31a68.42,68.42,0,0,1-19.21,2.55Z" transform="translate(0 0)"/><path class="cls-2" d="M416.15,137.57V127h25.78v10.58Zm3.65-53.75V73.12h33.8v10.7Zm26.63-20.91a9,9,0,0,1-6.36-15.38,9,9,0,0,1,12.74,12.73A8.6,8.6,0,0,1,446.43,62.91Zm-5.72,74.66V76.77H453.6v60.8Zm11.67,0V127h21v10.58Z" transform="translate(0 0)"/><path class="cls-3" d="M79.71,281.48q-16.48,0-25.45-8.67t-9-24.89q0-15.81,7.6-24.57t21.46-8.75q13.06,0,20.21,7.9t7.15,23q0,4.44-.37,8.27H56.12V243.9H90q0-8.68-4.13-13.34t-11.43-4.65q-8.2,0-12.74,5.59t-4.53,15.81q0,11.19,6.23,17t17.73,5.84a66.51,66.51,0,0,0,7.9-.46c2.59-.3,5.23-.72,7.9-1.25l1.59,11.31a84.41,84.41,0,0,1-10.46,1.4Q83.36,281.49,79.71,281.48Z" transform="translate(0 0)"/><path class="cls-3" d="M120.2,280.26V215.81h11.67l1.22,13.62v50.83Zm39.64,0V238.31q0-5.84-3-9c-2-2.11-4.86-3.16-8.51-3.16q-15.21,0-15.2,17.87l-3.77-16.53h5q.55-6.51,4.75-9.7t12.28-3.19q10.21,0,15.81,6.2t5.59,17.51v41.95Z" transform="translate(0 0)"/><path class="cls-3" d="M186.59,226.39V215.81H245v10.58Zm16.17,23.47v-53.5h12.89v53.5Zm27.73,31.62q-14.66,0-21.19-6.08t-6.54-19.46V245h12.89v10.33q0,7.66,3.74,11.13t12.31,3.46q3,0,6.45-.33c2.27-.22,4.86-.52,7.78-.88L247.39,280c-2.84.48-5.61.85-8.3,1.09S233.53,281.48,230.49,281.48Z" transform="translate(0 0)"/><path class="cls-3" d="M282.89,281.48q-10.08,0-15.62-4.87t-5.53-13.74q0-10.22,7.63-15.68t21.55-5.48a68.72,68.72,0,0,1,10.3.7,37.69,37.69,0,0,1,8.06,2.1l-2.67,8.76a44.23,44.23,0,0,0-8-1.07c-2.59-.1-5.25-.15-8-.15q-16.79,0-16.78,9.61a8.74,8.74,0,0,0,2.88,7q2.89,2.49,8.18,2.49A21.92,21.92,0,0,0,295,269.07a14.77,14.77,0,0,0,6.05-5.29,12.33,12.33,0,0,0,2-6.62V250.1l3.77,16.54h-5.11l2.07-1.94a16,16,0,0,1-2.59,9.33,15.44,15.44,0,0,1-7.26,5.59A29.91,29.91,0,0,1,282.89,281.48Zm22.74-.61-.85-19.09-1.7-5.35V239.77q0-6.45-4.53-9.46t-13.47-3.25l-15.44-.42,1.22-11.43,13,.18q16,.24,23.74,6.9t7.75,19.42v26.88l10.94,1.33v10.34Z" transform="translate(0 0)"/><path class="cls-3" d="M338.58,280.26V269.68h25.78v10.58Zm3.65-53.74V215.81H376v10.71Zm26.63-20.92a9,9,0,1,1,6.39-2.64A8.66,8.66,0,0,1,368.86,205.6Zm-5.71,74.66v-60.8H376v60.8Zm11.67,0V269.68h21v10.58Z" transform="translate(0 0)"/></g></svg>